#!OML:ASF F:\VICON\USERDATA\INSTALL\rory3\rory3.ASF
:FULLY-SPECIFIED
:DEGREES
81
root -0.23995224490258388 17.871480638843057 31.227691736120534 -1.8280136125398758 -4.8165927124886965 -8.470357357829345
lfemur -28.611694553967276 1.1453025024862584 -10.183707872628649
ltibia 44.10640487889643
lfoot -5.609241391114604 2.629084327034727
ltoes -10.570734066718002
rfemur 1.4946503237337119 6.02032449802738 36.07678028294841
rtibia 27.091182806168263
rfoot -17.72300292916897 -5.123197654834075
rtoes 4.884758656081958
lowerback 9.830073374008753 2.2085477400072846 7.316836056755111
upperback 0.3579301470972275 3.9333173213564288 2.3697538518421473
thorax -4.937128204104576 1.8363117514451686 -1.7593413549421255
lowerneck -16.61224200469903 -2.7211613119943814 -1.7238287913438648
upperneck 19.36710187304449 -3.5776123932386668 1.5753751716448967
head 8.878494507912905 -1.6460749702182573 0.40813303264592304
lclavicle -1.953240616871143e-15 9.06769233893557e-16
lhumerus -33.952512356665395 1.5851790122357183 84.41090762412179
lradius 24.755497735855624
lwrist 4.712541449958738
lhand -27.117928836688737 23.774331306404676
lfingers 7.12502
lthumb -0.508509943678949 53.77179772966561
rclavicle -1.953240617092752e-15 9.067692336901033e-16
rhumerus -26.01031210823892 -13.91884065247882 -80.57608128760323
rradius 26.225840220113074
rwrist 1.4193657902452914
rhand -18.371782050990134 22.401852637148313
rfingers 7.12502
rthumb 7.9886270162183886 -7.227751923928827
82
root -0.21413248898512843 17.811083994172666 32.22388862215863 -1.1359158372696863 -5.656877345777273 -8.877828067948673
lfemur -28.481521259197574 -1.8036740184949502 -8.60157528987951
ltibia 32.007333006695106
lfoot -4.4056653654239515 4.224704531072161
ltoes -10.839800794676542
rfemur 4.4071831068774046 6.225116545881963 36.51170229323247
rtibia 25.460062528498298
rfoot -17.180022298832885 -5.343904272811334
rtoes 3.709074763750764
lowerback 9.66878056180773 2.462402634194975 7.745522682830837
upperback 0.3172700795922435 4.291049075100741 2.400794341665747
thorax -4.881694839058491 1.9952970661163396 -2.0679991038500116
lowerneck -16.672321238535044 -2.749164105924079 -1.643823874010556
upperneck 19.250189820611606 -3.6311248872087614 1.5951333124649971
head 8.841232238318558 -1.6624749740226008 0.39656489275974205
lclavicle -1.9532406168769356e-15 9.067692338886006e-16
lhumerus -34.683031438529454 2.801778090205625 84.00729553570756
lradius 23.701298319329688
lwrist 4.068317824048436
lhand -27.41756496507061 23.343037607629583
lfingers 7.12502
lthumb -0.7827716076548557 53.35728516461084
rclavicle -1.9532406170978747e-15 9.06769233685714e-16
rhumerus -25.935239369085846 -13.911552507013639 -80.587919188765
rradius 26.220610544637868
rwrist 1.1959101537952543
rhand -18.33212782289271 22.89631341844307
rfingers 7.12502
rthumb 8.022466651835973 -6.818519661992873
83
root -0.17445136681779866 17.75652997458576 33.15049466731004 -0.5098087108642679 -6.336411186117164 -9.079393556240612
lfemur -27.30252646445542 -5.930894714857693 -6.760451795950649
ltibia 19.50729360518718
lfoot -3.8457892973312697 5.337182408408769
ltoes -11.629596329564853
rfemur 7.032892340314465 6.387615232421248 36.55816851453722
rtibia 24.10247785992673
rfoot -16.4940364524342 -5.139597990903115
rtoes 2.1741678380324494
lowerback 9.372768389186264 2.714566418688723 8.103605592988762
upperback 0.27880787167163884 4.6304303099045185 2.416467478792069
thorax -4.7725183626531384 2.1594082299998476 -2.3612596644766626
lowerneck -16.708824510338687 -2.7917123094176888 -1.6139364983368858
upperneck 19.150317062891954 -3.71038966368439 1.6508952228596643
head 8.799240682771982 -1.688635559591615 0.3994727876689589
lclavicle -1.9532406168811963e-15 9.067692338852734e-16
lhumerus -35.303627747956085 3.9863599260532867 83.52211657062463
lradius 22.476386715557325
lwrist 3.5725132633825414
lhand -27.69811186795268 22.856972566746897
lfingers 7.12502
lthumb -1.083184053691465 52.81951959493208
rclavicle -1.9532406171021207e-15 9.067692336824894e-16
rhumerus -25.85694884448806 -13.879798674804732 -80.3973117859075
rradius 26.01518791602978
rwrist 1.342980946197887
rhand -18.268059738750665 23.266712511520847
rfingers 7.12502
rthumb 8.064707087829989 -6.570141406276541
84
root -0.12025184539431027 17.72268200679718 34.11065503757242 -0.12426430381093168 -6.825073757627749 -8.962691995079311
lfemur -25.699761315352358 -8.164174412602067 -6.267591432831113
ltibia 10.525502873093767
lfoot -4.231596703001296 5.76171398781937
ltoes -12.387640774426801
rfemur 9.322391534745126 6.595318733633832 36.24265063912982
rtibia 23.972515636839226
rfoot -15.855416836064716 -4.2854973701661265
rtoes 0.468217693142599
lowerback 9.183074152582103 2.866345181847164 8.05538783175202
upperback 0.23040662545991286 4.816698461622446 2.3614176854663755
thorax -4.711148733374217 2.254805053353434 -2.511891952399655
lowerneck -16.714726491514647 -2.849450182817475 -1.6113129693317776
upperneck 19.123859831788142 -3.8189303007115054 1.7509164421328003
head 8.786648724764992 -1.7235648447214675 0.41537836269655004
lclavicle -1.9532406168884723e-15 9.06769233879414e-16
lhumerus -35.90746074268411 5.033672571390474 82.9563734277142
lradius 21.221743281051538
lwrist 2.7805941411334243
lhand -27.535859270724337 22.851569017467263
lfingers 7.12502
lthumb -0.9082037487465147 52.815370701186254
rclavicle -1.953240617101756e-15 9.067692336835902e-16
rhumerus -26.02079254539921 -14.145626436504282 -80.32218026974839
rradius 25.835222681934262
rwrist 1.4931207715706796
rhand -18.227014185806205 23.374335830802966
rfingers 7.12502
rthumb 8.039411658868234 -6.603755273840161
85
root -0.06424032194630436 17.664290501109125 34.76602904760901 -0.11314162064838218 -7.098922296331406 -8.576370226933525
lfemur -25.138122908217166 -5.943855973507309 -8.136894564900466
ltibia 10.349984817085371
lfoot -5.4218192283268545 5.205557455497906
ltoes -12.129623407013568
rfemur 10.898820572321132 6.720463573313138 35.51549325686193
rtibia 26.049217542649977
rfoot -14.775477738546904 -3.083715578769071
rtoes -1.0090863269042516
lowerback 9.043943617370289 2.9663584933187597 7.814548389066516
upperback 0.23002410250388947 4.904786499517207 2.2658207191767
thorax -4.6539075702395865 2.3108889766282363 -2.479402339251856
lowerneck -16.67220049823528 -2.9188125292591875 -1.6284751512540048
upperneck 19.133444094745442 -3.9482721803640253 1.8555160627367768
head 8.782928502441637 -1.7675510056537898 0.4335736046084665
lclavicle -1.953240616893166e-15 9.067692338761155e-16
lhumerus -36.46036767058014 5.8852790395183385 82.37749090671515
lradius 19.929838483350768
lwrist 1.891540675219832
lhand -27.262860457590694 22.780005369233525
lfingers 7.12502
lthumb -0.6007533374392399 52.851850681121846
rclavicle -1.9532406171050442e-15 9.067692336816177e-16
rhumerus -26.181662579585048 -14.40568803821537 -80.10851953724433
rradius 25.660921482040877
rwrist 1.9110727448681217
rhand -18.062640886459324 23.59723997693844
rfingers 7.12502
rthumb 8.138818060341205 -6.505150162358949
86
root 0.0031534268300502655 17.595387917196465 35.40127273447559 -0.5081007011675045 -7.2603083515277795 -7.96815128154873
lfemur -26.16662906070813 -4.112136008217394 -10.340418635263818
ltibia 16.69262185814369
lfoot -5.541749276666365 2.8949686751751305
ltoes -10.95948894985498
rfemur 11.929982034644581 6.51642670507608 34.44374125255569
rtibia 30.141163949026392
rfoot -12.489848217962688 -1.4155433385875478
rtoes -1.5325181893160509
lowerback 8.974197128649681 3.0380804363435576 7.4196311065546725
upperback 0.2425087201842465 4.926673373518612 2.124145516501954
thorax -4.601650036047944 2.330359291039409 -2.3896580312603164
lowerneck -16.569984253925867 -2.986954603812829 -1.6772870707979832
upperneck 19.18182207525503 -4.076423940644583 1.9617965582203993
head 8.777562406663847 -1.8163026342042585 0.46000752687945123
lclavicle -1.953240616893555e-15 9.067692338767748e-16
lhumerus -36.94503529093649 6.50968260478722 81.94603566466738
lradius 18.90593807544068
lwrist 0.9298706728525081
lhand -26.233785691096156 25.133820956380042
lfingers 7.12502
lthumb 0.3553768159052806 55.03354081341076
rclavicle -1.9532406171039686e-15 9.067692336834902e-16
rhumerus -26.44085634651007 -14.95351923328414 -79.97751410814591
rradius 25.528254338704265
rwrist 2.138454355026256
rhand -17.92383257322841 23.709329721116305
rfingers 7.12502
rthumb 8.217412328245048 -6.494855551370109
